<svg xmlns="http://www.w3.org/2000/svg" viewBox="0 0 100 100">
  <defs>
    <linearGradient id="gradient1" x1="0%" y1="0%" x2="100%" y2="100%">
      <stop offset="0%" style="stop-color:#4F46E5;stop-opacity:1"/>
      <stop offset="100%" style="stop-color:#8B5CF6;stop-opacity:1"/>
    </linearGradient>
  </defs>
  <rect width="100" height="100" fill="transparent"/>
  <g transform="translate(10, 10)">
<!--Calculadora/Teclado-->
    <path d="M 50 10 A 10 10 0 0 0 40 0 L 10 0 A 10 10 0 0 0 0 10 L 0 80 A 10 10 0 0 0 10 90 L 80 90 A 10 10 0 0 0 90 80 L 90 40 A 10 10 0 0 0 80 30 L 70 30 A 10 10 0 0 0 60 20 L 50 20 L 50 10 Z" fill="url(#gradient1)"/>
    <rect x="20" y="20" width="50" height="25" rx="5" ry="5" fill="#E2E8F0"/>
    <rect x="25" y="55" width="10" height="10" rx="3" ry="3" fill="#6B7280"/>
    <rect x="40" y="55" width="10" height="10" rx="3" ry="3" fill="#6B7280"/>
    <rect x="55" y="55" width="10" height="10" rx="3" ry="3" fill="#6B7280"/>
    <rect x="25" y="70" width="10" height="10" rx="3" ry="3" fill="#6B7280"/>
    <rect x="40" y="70" width="10" height="10" rx="3" ry="3" fill="#6B7280"/>
    <rect x="55" y="70" width="10" height="10" rx="3" ry="3" fill="#6B7280"/>
<!--Pila de monedas-->
    <circle cx="70" cy="70" r="15" fill="#FBBF24" stroke="#F59E0B" stroke-width="2"/>
    <circle cx="70" cy="60" r="15" fill="#FBBF24" stroke="#F59E0B" stroke-width="2"/>
    <circle cx="70" cy="50" r="15" fill="#FBBF24" stroke="#F59E0B" stroke-width="2"/>
<!--Símbolo de dólar/moneda-->
    <text x="63" y="62" font-family="Arial, sans-serif" font-size="18" font-weight="bold" fill="#F59E0B">$</text>
  </g>
</svg>
